<?xml version="1.0" encoding="UTF-8" standalone="no"?>
<svg
   xmlns:dc="http://purl.org/dc/elements/1.1/"
   xmlns:cc="http://creativecommons.org/ns#"
   xmlns:rdf="http://www.w3.org/1999/02/22-rdf-syntax-ns#"
   xmlns:svg="http://www.w3.org/2000/svg"
   xmlns="http://www.w3.org/2000/svg"
   id="svg8"
   version="1.1"
   viewBox="0 0 16.933333 16.933334"
   height="64"
   width="64">
  <defs
     id="defs2" />
  <metadata
     id="metadata5">
    <rdf:RDF>
      <cc:Work
         rdf:about="">
        <dc:format>image/svg+xml</dc:format>
        <dc:type
           rdf:resource="http://purl.org/dc/dcmitype/StillImage" />
        <dc:title></dc:title>
      </cc:Work>
    </rdf:RDF>
  </metadata>
  <g
     transform="translate(0,-11.249975)"
     id="layer1">
    <g
       style="stroke-width:1.47507"
       transform="matrix(0.67793366,0,0,0.67793366,3.9857692,7.8194888)"
       id="g3912">
      <path
         id="path4788"
         d="m -4.8056603,20.197556 1.9538825,7.291995 7.2919832,1.953786 C 4.8131907,26.873006 4.5086624,24.395055 2.4863293,22.151368 0.35198266,20.166663 -2.2491291,20.282442 -4.8056603,20.197556 Z"
         style="vector-effect:none;fill:#196a4b;fill-opacity:1;fill-rule:nonzero;stroke:none;stroke-width:2.77098;stroke-linecap:round;stroke-linejoin:miter;stroke-miterlimit:4;stroke-dasharray:none;stroke-dashoffset:0;stroke-opacity:1;marker:none;paint-order:normal" />
      <path
         id="path4790"
         d="m 7.8244738,16.813322 c -2.6784421,1.455694 -5.3308446,2.920737 -5.3381445,5.338046 l 1.9538761,7.291969 5.3381507,-5.33802 z"
         style="vector-effect:none;fill:#71b649;fill-opacity:1;fill-rule:nonzero;stroke:none;stroke-width:2.77098;stroke-linecap:round;stroke-linejoin:miter;stroke-miterlimit:4;stroke-dasharray:none;stroke-dashoffset:0;stroke-opacity:1;marker:none;paint-order:normal" />
      <path
         id="path4792"
         d="m 0.53244471,14.859372 -5.33810501,5.338184 7.2919896,1.953812 5.3381445,-5.338046 z"
         style="vector-effect:none;fill:#a4e480;fill-opacity:1;fill-rule:nonzero;stroke:none;stroke-width:2.77098;stroke-linecap:round;stroke-linejoin:miter;stroke-miterlimit:4;stroke-dasharray:none;stroke-dashoffset:0;stroke-opacity:1;marker:none;paint-order:normal" />
      <path
         id="path4794"
         d="m 0.73687505,16.403407 c -0.21214871,0.05684 -0.41179817,0.160383 -0.54862437,0.297211 -0.27365461,0.273661 -0.19238486,0.576686 0.18149891,0.676814 0.37376093,0.100126 0.89859921,-0.0405 1.17221851,-0.314099 0.273611,-0.27362 0.1924355,-0.576554 -0.181326,-0.676711 -0.1868825,-0.05012 -0.41161388,-0.04006 -0.62376705,0.01679 z m 1.78851735,0.47928 C 2.3132656,16.939528 2.1135791,17.043102 1.9767636,17.179902 1.7031443,17.453526 1.784484,17.756559 2.1582737,17.85674 2.5320321,17.956866 3.0567322,17.816276 3.3303498,17.542681 3.603954,17.269032 3.5227412,16.965964 3.1489822,16.865805 2.9621043,16.81574 2.7375173,16.82585 2.5253924,16.882684 Z m -4.0768982,1.809064 c -0.2121488,0.05684 -0.4117631,0.160516 -0.5485893,0.297346 -0.2736546,0.273633 -0.192409,0.576579 0.181466,0.676674 0.3737676,0.100155 0.8986078,-0.04048 1.17221637,-0.314092 0.27360419,-0.273622 0.19229718,-0.576519 -0.18146603,-0.676678 -0.18688274,-0.05012 -0.41146724,-0.04007 -0.62362704,0.01675 z m 5.8654203,-1.329754 c -0.2121227,0.05684 -0.4116845,0.160352 -0.5484954,0.297147 -0.2736129,0.273622 -0.1924263,0.576583 0.1813328,0.67674 0.3737566,0.100161 0.898594,-0.04047 1.1722164,-0.314092 C 5.3925874,17.748168 5.3114119,17.445203 4.9376355,17.34505 4.7507574,17.29499 4.5260326,17.30516 4.3139145,17.36199 Z M 0.23701164,19.17103 c -0.21212468,0.05684 -0.41182456,0.160387 -0.54862884,0.297215 -0.27361514,0.273618 -0.19227087,0.576682 0.18150987,0.676837 0.37375006,0.100101 0.89845648,-0.04049 1.17207603,-0.31406 0.2736064,-0.273617 0.1923914,-0.576714 -0.1813696,-0.676873 -0.18688051,-0.05009 -0.41146278,-0.03996 -0.62358746,0.01688 z m 1.78851296,0.479283 c -0.2121181,0.05684 -0.4116777,0.160379 -0.5484862,0.297175 -0.2736088,0.273619 -0.1924197,0.576609 0.1813321,0.676742 0.3737591,0.100156 0.8986037,-0.04048 1.1722164,-0.314097 0.2736217,-0.273595 0.1924443,-0.576585 -0.1813321,-0.676742 -0.1868763,-0.05007 -0.4116097,-0.03992 -0.6237302,0.01692 z"
         style="vector-effect:none;fill:#ffffff;fill-opacity:1;fill-rule:nonzero;stroke:none;stroke-width:2.77098;stroke-linecap:round;stroke-linejoin:miter;stroke-miterlimit:4;stroke-dasharray:none;stroke-dashoffset:0;stroke-opacity:1;marker:none;paint-order:normal" />
      <path
         id="path4796"
         d="m -2.7070381,21.931575 c -0.180245,0.05812 -0.2635754,0.243284 -0.194726,0.500232 0.1001415,0.373779 0.4843982,0.757876 0.8581702,0.85803 0.373772,0.100155 0.5955397,-0.12161 0.4953785,-0.495385 -0.1001503,-0.37375 -0.4842711,-0.75791 -0.8580344,-0.858067 -0.116797,-0.03129 -0.2188566,-0.03121 -0.3007883,-0.0048 z m 3.12596735,0.837574 C 0.23868421,22.827268 0.1553539,23.01243 0.22420104,23.269378 0.32434472,23.64316 0.7086014,24.027255 1.0823738,24.127409 1.4561344,24.227538 1.6779128,24.005798 1.5777518,23.632023 1.4776016,23.258276 1.0934788,22.874115 0.71971752,22.773956 0.60291829,22.742673 0.500861,22.742745 0.41892925,22.769153 Z m -1.08372369,1.369834 c -0.18025819,0.05813 -0.26362796,0.243242 -0.19472602,0.500232 0.10020506,0.373733 0.48446402,0.757917 0.85817024,0.85803 0.37371498,0.100142 0.59544095,-0.121698 0.49537846,-0.495385 -0.10009984,-0.373789 -0.48426016,-0.758031 -0.85807159,-0.858201 -0.11681676,-0.03131 -0.21881495,-0.03108 -0.30075109,-0.0047 z m -1.08376096,1.369705 c -0.1802428,0.05812 -0.2635819,0.243252 -0.194726,0.500229 0.1001502,0.373751 0.4844092,0.757874 0.8581724,0.85803 0.37375445,0.100131 0.59551997,-0.121635 0.49536971,-0.495411 -0.10014807,-0.37375 -0.48427111,-0.75791 -0.85802771,-0.858041 -0.1167949,-0.03128 -0.2188566,-0.03121 -0.3007884,-0.0048 z m 3.1259675,0.837569 c -0.1802429,0.05812 -0.2635756,0.243285 -0.1947282,0.500234 0.1001588,0.373774 0.484418,0.757899 0.8581746,0.85803 0.3737588,0.100157 0.5955263,-0.121609 0.4953763,-0.495385 -0.1001485,-0.37375 -0.4842736,-0.757911 -0.8580344,-0.858068 -0.116797,-0.03128 -0.218857,-0.03121 -0.3007883,-0.0048 z"
         style="vector-effect:none;fill:#71b649;fill-opacity:1;fill-rule:nonzero;stroke:none;stroke-width:2.77098;stroke-linecap:round;stroke-linejoin:miter;stroke-miterlimit:4;stroke-dasharray:none;stroke-dashoffset:0;stroke-opacity:1;marker:none;paint-order:normal" />
      <path
         id="path4798"
         d="m 6.8739379,19.36436 c -0.084128,0.01822 -0.1724392,0.06903 -0.2579484,0.154521 -0.2736176,0.273622 -0.4143435,0.798387 -0.3141823,1.172164 0.1001483,0.373748 0.403223,0.454883 0.6768401,0.18129 C 7.2522561,20.598716 7.3928351,20.073959 7.2926915,19.700211 7.2238424,19.443232 7.0590886,19.324545 6.8739379,19.36436 Z m -0.6649307,2.932795 c -0.084128,0.01822 -0.1725091,0.06876 -0.2579833,0.154385 -0.2736151,0.273622 -0.4143084,0.798524 -0.3141472,1.172298 0.1001483,0.373751 0.4032254,0.454883 0.6768399,0.181292 0.273609,-0.273621 0.4141881,-0.798375 0.3140442,-1.172126 -0.068849,-0.256977 -0.2336026,-0.375666 -0.4187536,-0.335849 z m -0.6649657,2.932659 c -0.084128,0.01822 -0.1724386,0.06903 -0.257948,0.154523 -0.2736152,0.273591 -0.4143346,0.798383 -0.3141845,1.172161 0.1001461,0.373779 0.4032247,0.454913 0.6768401,0.181291 0.2736261,-0.273595 0.4142012,-0.798379 0.3140464,-1.172126 -0.068861,-0.256973 -0.233616,-0.37569 -0.418754,-0.335849 z"
         style="vector-effect:none;fill:#a4e480;fill-opacity:1;fill-rule:nonzero;stroke:none;stroke-width:2.77098;stroke-linecap:round;stroke-linejoin:miter;stroke-miterlimit:4;stroke-dasharray:none;stroke-dashoffset:0;stroke-opacity:1;marker:none;paint-order:normal" />
    </g>
    <g
       style="stroke-width:1.47507"
       transform="matrix(0.67793366,0,0,0.67793366,6.9292378,9.2950519)"
       id="g3904">
      <path
         style="color:#000000;font-style:normal;font-variant:normal;font-weight:normal;font-stretch:normal;font-size:medium;line-height:normal;font-family:sans-serif;font-variant-ligatures:normal;font-variant-position:normal;font-variant-caps:normal;font-variant-numeric:normal;font-variant-alternates:normal;font-feature-settings:normal;text-indent:0;text-align:start;text-decoration:none;text-decoration-line:none;text-decoration-style:solid;text-decoration-color:#000000;letter-spacing:normal;word-spacing:normal;text-transform:none;writing-mode:lr-tb;direction:ltr;text-orientation:mixed;dominant-baseline:auto;baseline-shift:baseline;text-anchor:start;white-space:normal;shape-padding:0;clip-rule:nonzero;display:inline;overflow:visible;visibility:visible;opacity:0.311;isolation:auto;mix-blend-mode:normal;color-interpolation:sRGB;color-interpolation-filters:linearRGB;solid-color:#000000;solid-opacity:1;vector-effect:none;fill:#000000;fill-opacity:1;fill-rule:nonzero;stroke:none;stroke-width:19.514;stroke-linecap:round;stroke-linejoin:miter;stroke-miterlimit:4;stroke-dasharray:none;stroke-dashoffset:0;stroke-opacity:1;marker:none;paint-order:normal;color-rendering:auto;image-rendering:auto;shape-rendering:auto;text-rendering:auto;enable-background:accumulate"
         d="M 0.04605799,13.932993 -3.0905644,16.745119 0.24199379,17.912332 1.9664094,22.52303 5.0381732,20.504869 3.9200898,16.067936 Z"
         id="path4802" />
      <path
         style="vector-effect:none;fill:#ff5b00;fill-opacity:1;fill-rule:nonzero;stroke:none;stroke-width:2.77098;stroke-linecap:round;stroke-linejoin:miter;stroke-miterlimit:4;stroke-dasharray:none;stroke-dashoffset:0;stroke-opacity:1;marker:none;paint-order:normal"
         d="M 0.05190673,6.1317437 -1.901978,13.42374 3.436171,18.761757 C 5.0819022,16.621134 5.5982386,14.151141 5.390049,11.46979 5.4593915,7.8977329 2.3793857,7.3795961 0.05190673,6.1317437 Z"
         id="path4804" />
      <path
         style="vector-effect:none;fill:#ff9700;fill-opacity:1;fill-rule:nonzero;stroke:none;stroke-width:2.77098;stroke-linecap:round;stroke-linejoin:miter;stroke-miterlimit:4;stroke-dasharray:none;stroke-dashoffset:0;stroke-opacity:1;marker:none;paint-order:normal"
         d="M 12.682041,9.5159771 C 10.019829,9.4515778 7.2355872,9.0099451 5.390049,11.46979 l -1.953878,7.291967 7.291985,-1.953783 z"
         id="path4806" />
      <path
         style="vector-effect:none;fill:#ffcc00;fill-opacity:1;fill-rule:nonzero;stroke:none;stroke-width:2.77098;stroke-linecap:round;stroke-linejoin:miter;stroke-miterlimit:4;stroke-dasharray:none;stroke-dashoffset:0;stroke-opacity:1;marker:none;paint-order:normal"
         d="M 7.3439313,4.1777954 0.05190673,6.1317437 5.390049,11.46979 12.682041,9.5159771 Z"
         id="path4808" />
      <path
         style="vector-effect:none;fill:#ffe681;fill-opacity:1;fill-rule:nonzero;stroke:none;stroke-width:2.77098;stroke-linecap:round;stroke-linejoin:miter;stroke-miterlimit:4;stroke-dasharray:none;stroke-dashoffset:0;stroke-opacity:1;marker:none;paint-order:normal"
         d="M 6.7489578,5.6171844 C 6.5368088,5.560339 6.3121385,5.5501786 6.1252297,5.6002614 5.7514071,5.7004314 5.6702755,6.003493 5.9440051,6.2771454 6.217629,6.5507408 6.7424663,6.6913703 7.1162254,6.5912397 7.489989,6.4910829 7.5711577,6.1881463 7.2975489,5.914529 7.1607624,5.7776786 6.9611105,5.6740276 6.7489578,5.61718 Z M 8.0582192,6.9265119 C 7.8460901,6.8696731 7.6213699,6.8595281 7.4344872,6.909589 7.0607125,7.0097436 6.9796361,7.312849 7.2532576,7.5865014 7.5268794,7.8600946 8.0515795,8.0006869 8.4253361,7.9005585 8.7991077,7.8003754 8.8803095,7.4973029 8.6067035,7.2236833 8.4698944,7.0868878 8.2703436,6.9833486 8.0582192,6.9265098 Z M 3.6229899,6.4547555 C 3.4108411,6.3979101 3.1861336,6.3878856 2.9992248,6.4379641 2.6254153,6.5381099 2.5443037,6.8410904 2.8180418,7.1147143 3.0916569,7.388336 3.6164969,7.5289677 3.9902582,7.4288087 4.3640148,7.3286518 4.4450517,7.0256801 4.1714412,6.7520584 4.0346547,6.6152103 3.8351348,6.5116228 3.6229899,6.4547489 Z M 9.367468,8.2358658 C 9.1553451,8.1790292 8.9307654,8.1688929 8.7438851,8.2189648 8.370119,8.3191216 8.2889481,8.6220867 8.5625523,8.895704 8.8361565,9.1693236 9.3609945,9.3099531 9.7347687,9.2097984 10.108543,9.1096438 10.189725,8.806683 9.9161015,8.5330591 9.7792924,8.3962636 9.5795883,8.2927112 9.367468,8.2358746 Z M 4.9322519,7.7640853 C 4.7201251,7.7072464 4.4954068,7.6970729 4.3085195,7.7471623 3.9347499,7.8473169 3.8536643,8.1504486 4.1272904,8.4240725 4.4009185,8.6976395 4.925625,8.8382339 5.299369,8.7381296 5.6731272,8.6379728 5.7543423,8.3348762 5.480736,8.0612567 5.3439361,7.9244326 5.1443765,7.8209197 4.9322519,7.7640809 Z M 6.2415094,9.0734106 C 6.0293891,9.016574 5.8047958,9.0064618 5.6179173,9.0565315 5.2441565,9.1566905 5.1629747,9.4596797 5.4365852,9.733273 5.7101933,10.00689 6.2350362,10.147524 6.6088016,10.047367 6.9825628,9.9472368 7.0637576,9.6442498 6.7901337,9.3706259 6.6533274,9.2338304 6.4536275,9.1302517 6.2415094,9.073415 Z"
         id="path4810" />
      <path
         style="vector-effect:none;fill:#ff9700;fill-opacity:1;fill-rule:nonzero;stroke:none;stroke-width:2.77098;stroke-linecap:round;stroke-linejoin:miter;stroke-miterlimit:4;stroke-dasharray:none;stroke-dashoffset:0;stroke-opacity:1;marker:none;paint-order:normal"
         d="M 1.0023575,8.6827617 C 0.81720219,8.6429708 0.65245307,8.7616618 0.58360383,9.0186082 0.48344042,9.3923824 0.62416847,9.9171481 0.8977858,10.19077 1.1714053,10.464392 1.4743444,10.383222 1.574488,10.009442 1.6746319,9.6356918 1.5340522,9.1109371 1.2604441,8.8373176 1.174937,8.7518281 1.0865142,8.7008618 1.0023575,8.6827617 Z m 2.2883811,2.2883413 c -0.1851555,-0.03979 -0.3499044,0.0789 -0.4187559,0.335846 -0.1001617,0.373777 0.040567,0.898541 0.3141862,1.172165 0.2736217,0.273593 0.5765561,0.19245 0.6766998,-0.181326 0.1001437,-0.373753 -0.040438,-0.898505 -0.3140442,-1.172127 -0.085509,-0.08549 -0.1739291,-0.136455 -0.2580859,-0.154558 z m -1.6234506,0.64445 c -0.1851705,-0.03979 -0.3499281,0.07884 -0.4187536,0.335851 -0.1000869,0.373765 0.040602,0.898606 0.3141841,1.17216 0.2735756,0.273582 0.5765147,0.192327 0.6766996,-0.181326 C 2.3396255,12.568476 2.199053,12.043634 1.9254094,11.769977 1.8398982,11.684455 1.7514489,11.633655 1.667288,11.615553 Z m -1.6234153,0.644318 c -0.18515533,-0.03979 -0.34989567,0.07887 -0.41875158,0.335849 -0.10014368,0.37375 0.0405713,0.89854 0.31418206,1.172162 0.27361734,0.273593 0.57655395,0.192419 0.6767085,-0.181357 0.10014368,-0.37375 -0.0404353,-0.898502 -0.31405264,-1.172096 -0.0855049,-0.08549 -0.17392961,-0.136458 -0.25808634,-0.154558 z m 2.2883806,2.288342 c -0.1851549,-0.03979 -0.349902,0.0789 -0.4187558,0.335849 -0.1001456,0.373778 0.040569,0.89857 0.3141867,1.172163 0.2736084,0.273617 0.576545,0.192446 0.676702,-0.18133 0.1001439,-0.37375 -0.040438,-0.898505 -0.3140464,-1.172122 -0.085507,-0.08549 -0.1739296,-0.136461 -0.2580865,-0.15456 z"
         id="path4812" />
      <path
         style="vector-effect:none;fill:#ffcc00;fill-opacity:1;fill-rule:nonzero;stroke:none;stroke-width:2.77098;stroke-linecap:round;stroke-linejoin:miter;stroke-miterlimit:4;stroke-dasharray:none;stroke-dashoffset:0;stroke-opacity:1;marker:none;paint-order:normal"
         d="m 10.583333,11.249975 c -0.08196,-0.0263 -0.183851,-0.02644 -0.30065,0.0048 -0.3737694,0.100154 -0.7580262,0.484251 -0.8581699,0.85803 -0.1001439,0.373752 0.1217576,0.595553 0.4955142,0.495423 0.3737627,-0.100157 0.7578837,-0.484318 0.8580347,-0.858068 0.06886,-0.256973 -0.01447,-0.442137 -0.194729,-0.500229 z m -2.0422433,2.207407 c -0.081963,-0.02629 -0.1837769,-0.02671 -0.3006132,0.0047 -0.3737695,0.100155 -0.7580616,0.484386 -0.858207,0.858166 -0.1001437,0.37375 0.1217592,0.595551 0.4955141,0.49542 C 8.2515468,14.715514 8.6356679,14.331353 8.735818,13.957601 8.804678,13.700631 8.72135,13.515466 8.5410897,13.457372 Z M 6.4988831,15.66466 c -0.08196,-0.0263 -0.183851,-0.02644 -0.3006502,0.0048 -0.3737545,0.100131 -0.7580152,0.484254 -0.8581722,0.85803 -0.1001613,0.373776 0.1217465,0.595577 0.4955141,0.495423 0.3737654,-0.100129 0.7578975,-0.484316 0.8580343,-0.858068 0.068854,-0.256975 -0.014468,-0.442165 -0.194726,-0.500229 z"
         id="path4814" />
    </g>
  </g>
</svg>
