<?xml version="1.0" encoding="UTF-8" standalone="no"?>
<svg
   xmlns:dc="http://purl.org/dc/elements/1.1/"
   xmlns:cc="http://creativecommons.org/ns#"
   xmlns:rdf="http://www.w3.org/1999/02/22-rdf-syntax-ns#"
   xmlns:svg="http://www.w3.org/2000/svg"
   xmlns="http://www.w3.org/2000/svg"
   xmlns:sodipodi="http://sodipodi.sourceforge.net/DTD/sodipodi-0.dtd"
   xmlns:inkscape="http://www.inkscape.org/namespaces/inkscape"
   sodipodi:docname="logo.svg"
   inkscape:version="1.1-dev (ae55a4e461, 2020-04-06)"
   id="svg1898"
   version="1.1"
   viewBox="0 0 238.8167 73.874107"
   height="73.874107"
   width="238.8167">
  <defs
     id="defs1892" />
  <sodipodi:namedview
     inkscape:window-maximized="0"
     inkscape:window-y="0"
     inkscape:window-x="1970"
     inkscape:window-height="1043"
     inkscape:window-width="1422"
     inkscape:snap-page="true"
     units="px"
     showgrid="false"
     inkscape:current-layer="layer1"
     inkscape:document-units="px"
     inkscape:cy="-260.1848"
     inkscape:cx="-145.99858"
     inkscape:zoom="0.35"
     inkscape:pageshadow="2"
     inkscape:pageopacity="0.0"
     borderopacity="1.0"
     bordercolor="#666666"
     pagecolor="#ffffff"
     id="base" />
  <metadata
     id="metadata1895">
    <rdf:RDF>
      <cc:Work
         rdf:about="">
        <dc:format>image/svg+xml</dc:format>
        <dc:type
           rdf:resource="http://purl.org/dc/dcmitype/StillImage" />
        <dc:title></dc:title>
      </cc:Work>
    </rdf:RDF>
  </metadata>
  <g
     transform="translate(-660.2843,-820.1848)"
     id="layer1"
     inkscape:groupmode="layer"
     inkscape:label="Layer 1">
    <path
       inkscape:export-ydpi="96"
       inkscape:export-xdpi="96"
       inkscape:export-filename="E:\Clients\Q3_2019\GDQuest\Thumbnails\Draft2.png"
       id="path4678"
       d="m 688.12313,820.21089 a 3.1446655,3.1446655 0 0 0 -0.92599,0.10205 l -3.56209,0.96151 c -13.72603,3.68466 -23.33288,16.18507 -23.35075,30.39987 v 0 0 c 0,15.6121 11.56614,28.79622 26.75096,31.12215 l 0.0548,0.30236 0.47176,4.77997 a 3.1446655,3.1446655 0 0 0 3.44636,2.81915 l 10.93807,-1.11421 2.34058,3.18992 a 3.1446655,3.1446655 0 0 0 3.34715,1.17884 l 3.56209,-0.95358 c 8.98617,-2.40945 15.97482,-8.71219 19.88992,-16.67867 4.77067,2.93707 10.32287,4.78601 16.42665,3.8914 2.77709,-0.40668 5.38436,-1.34514 7.88538,-2.41172 l 14.736,0.64857 a 3.1446655,3.1446655 0 0 0 0.0593,0 c 6.36454,0.17008 12.91076,-1.10967 17.25336,-5.15339 4.92113,3.78142 11.02049,6.17348 17.74749,5.33972 0.34242,-0.0529 0.32239,-0.0983 0.59531,-0.15874 l 2.71105,3.44277 a 3.1446655,3.1446655 0 0 0 4.33467,0.58242 l 7.15253,-5.27281 c 2.07794,0.82922 4.16885,1.72989 6.61228,1.62481 1.05358,-0.0529 1.06258,-0.22299 1.55165,-0.41612 a 3.1446655,3.1446655 0 0 0 0.94734,0.10583 l 16.31444,-0.703 a 3.1446655,3.1446655 0 0 0 2.36644,-1.24611 c 0.60283,0.1663 0.68277,0.42066 1.47772,0.46262 2.62564,0.13606 5.02681,-0.49134 7.37741,-1.1811 4.89876,2.8936 10.43455,3.40611 15.47036,2.57385 1.83813,-0.30236 3.66138,-1.03974 5.45234,-1.84403 1.55267,0.68485 3.11921,1.39503 4.8824,1.53147 3.62014,0.28346 7.12271,-0.50117 10.18526,-1.99446 l 3.83867,-1.87087 a 3.1446655,3.1446655 0 0 0 1.6907,-3.52138 l -2.12765,-9.35773 a 3.1446655,3.1446655 0 0 0 1.84415,-2.61241 l 1.21897,-14.623 a 3.1446655,3.1446655 0 0 0 -2.8913,-3.39552 l -3.30886,-0.25701 0.2434,-2.85128 a 3.1446655,3.1446655 0 0 0 -2.89179,-3.39552 l -16.18878,-1.25292 a 3.1446655,3.1446655 0 0 0 -3.37542,2.87736 l -0.2434,2.87773 -0.15383,-0.0529 a 3.1446655,3.1446655 0 0 0 -2.45083,0.90217 c -0.69963,-0.10583 -0.89575,-0.32126 -2.0601,-0.13606 -1.67929,0.28346 -3.25028,1.01102 -4.82181,1.70381 -2.76665,-1.8274 -5.94493,-3.26627 -9.67389,-3.46205 -2.46278,-0.13228 -4.58937,0.57562 -6.68621,1.24724 a 3.1446655,3.1446655 0 0 0 -0.93797,-0.10204 l -16.06564,0.69127 a 3.1446655,3.1446655 0 0 0 -0.0548,0 l -0.22866,0.0529 -7.75185,0.31748 c -5.20259,-5.1258 -12.49066,-8.03339 -20.26779,-7.06923 -4.70362,0.58318 -8.72496,2.66419 -12.15504,5.3537 -4.54371,-3.46658 -9.93649,-5.34728 -14.54577,-5.47314 l -18.55476,-0.82091 a 3.1446655,3.1446655 0 0 0 -3.27111,2.8441 c -3.09634,-0.68296 -6.29351,-1.087 -9.62521,-0.59868 -6.2389,0.91464 -11.18532,4.28145 -15.00812,8.50242 -4.67974,-5.52982 -10.79698,-9.90916 -18.30546,-11.18173 l -0.0548,-0.32504 -0.48661,-4.7879 a 3.1446655,3.1446655 0 0 0 -3.44538,-2.81877 l -10.946,1.12176 -2.37339,-3.21184 a 3.1446655,3.1446655 0 0 0 -2.4186,-1.27144 z m -0.099,3.14192 3.43846,4.64844 12.727,-1.29713 0.76369,7.61915 h 0.0548 c 8.98568,0.60737 16.40682,5.67005 21.16751,12.66066 3.37939,-4.9697 8.79254,-8.70803 15.45347,-9.6839 4.13261,-0.60586 8.24092,0.0945 12.12774,1.41203 l 0.16857,-3.62533 18.60941,0.8213 c 4.6063,0.13228 10.6828,1.97744 14.74934,6.0359 3.2826,-3.12189 7.52992,-5.33556 12.42116,-5.94179 7.48274,-0.92863 14.65508,1.87464 19.12728,7.13348 l 8.66396,-0.36662 0.2434,-0.0529 16.06965,-0.68977 v 0.24945 c 2.29251,-0.91767 4.72546,-1.52693 7.31489,-1.39162 3.67083,0.19276 6.84858,1.66904 9.50257,3.73266 1.79145,-0.9891 3.7418,-1.68982 5.67828,-2.00919 1.24429,-0.2041 2.43451,0.30236 3.68028,0.3137 l 0.0745,-1.04769 3.27556,0.25323 0.50101,-5.99395 16.18636,1.25291 -0.49652,6.00038 6.4588,0.5057 -1.21848,14.62375 -2.63456,-0.2041 2.98466,13.13159 -3.83721,1.87163 c -2.60277,1.26727 -5.55269,1.91659 -8.56709,1.68377 -1.73189,-0.13606 -3.51938,-0.76195 -5.16639,-1.64598 -1.84361,1.0201 -3.8804,1.65203 -5.92558,1.98954 -4.48365,0.74079 -9.23391,0.28347 -13.38345,-2.18041 l -0.87485,-0.51741 c -2.46376,0.91956 -5.12417,1.41316 -7.91815,1.26614 -1.56457,-0.0794 -2.78997,-0.99137 -4.23689,-1.43887 l 0.0994,2.22161 -16.31546,0.70375 -0.0548,-0.42558 c -0.84609,0.18142 -1.61522,0.69997 -2.46675,0.73588 -2.57503,0.10582 -5.0259,-0.64366 -7.25133,-1.81644 l -8.24137,6.07483 -3.98661,-5.05285 c -0.74528,0.1663 -1.40322,0.49965 -2.18177,0.59641 -6.8784,0.8519 -13.30941,-1.67017 -17.80305,-6.12737 -3.02188,4.45493 -9.82926,6.10091 -16.728,5.92214 l -15.20575,-0.67049 c -2.56354,1.16674 -5.26167,2.06325 -8.01441,2.4669 -6.57657,0.96378 -12.73448,-1.15994 -17.33587,-5.04113 -3.07347,8.59124 -10.16042,15.43861 -19.33579,17.89984 l -3.56157,0.95584 -3.40025,-4.64277 -12.72703,1.29298 -0.76615,-7.61386 h -0.0548 c -14.83226,-1.00233 -26.459,-13.41808 -26.459,-28.28485 v 0 0 c 0.0548,-12.80315 8.66196,-24.05292 21.02899,-27.36983 z m -2.25377,6.26344 -3.0119,1.10778 0.37719,4.98444 c -1.08147,0.59376 -2.0914,1.28617 -3.02188,2.06891 l -4.66038,-1.93247 -2.04326,2.43439 2.80638,4.04069 c -0.646,1.06281 -1.18023,2.19553 -1.59534,3.37739 l -4.92155,0.59717 -0.52335,3.10526 4.4389,2.0999 c 0,0.62324 0.0548,1.25254 0.0892,1.88485 0.0593,0.63307 0.15383,1.25443 0.28271,1.86331 l -3.93751,2.90834 1.13306,2.94426 4.94695,-0.34394 c 0.64301,1.08019 1.39174,2.08857 2.23536,3.00888 l -1.94789,4.49688 2.48663,1.99711 4.18473,-2.7806 c 1.06753,0.58998 2.19915,1.07678 3.3784,1.45398 l 0.62412,4.96252 3.17431,0.51175 2.26367,-4.5789 c 0.58991,0 1.1847,-0.0529 1.78258,-0.11338 h 0.002 l 8.65894,-0.83339 -1.23285,-12.30236 -8.66245,0.83036 0.3772,3.82904 h -0.002 c -5.44989,0.52195 -10.29752,-3.37587 -10.83326,-8.70954 -0.5342,-5.33103 3.44795,-10.07547 8.89629,-10.59893 v 0 l 8.66052,-0.83263 -0.85058,-8.47635 -8.65951,0.8315 c -0.59973,0.0529 -1.18968,0.13228 -1.77006,0.23055 z m 18.81351,10.28938 -2.26613,4.5789 c -0.58946,0 -1.18231,0.0529 -1.78061,0.11339 l -8.66192,0.83187 0.85005,8.47483 8.66045,-0.83149 a 9.9130815,9.7014855 0 0 1 10.8362,8.70576 9.9130815,9.7014855 0 0 1 -8.89923,10.60195 l -8.66,0.83604 0.85009,8.47445 8.66242,-0.83149 c 0.5983,-0.0529 1.1887,-0.13229 1.76715,-0.23056 l 3.13459,4.06186 3.01047,-1.10626 -0.37266,-4.9852 c 1.08041,-0.59263 2.09238,-1.28693 3.02188,-2.06854 l 4.66039,1.93134 2.04174,-2.43288 -2.8054,-4.04183 c 0.64453,-1.06318 1.18126,-2.19477 1.59734,-3.37738 l 4.9191,-0.59641 0.52388,-3.10602 -4.43898,-2.10066 c 0.0548,-0.62135 -0.0548,-1.2514 -0.0892,-1.88372 -0.0597,-0.63269 -0.15383,-1.2548 -0.288,-1.86368 l 3.93695,-2.90797 -1.13307,-2.94576 -4.94491,0.35149 c -0.64248,-1.08019 -1.39279,-2.08894 -2.23687,-3.00926 l 1.94789,-4.49688 -2.48564,-1.99672 -4.18817,2.78097 c -1.06806,-0.58998 -2.19715,-1.07792 -3.37591,-1.45436 l -0.62563,-4.9629 z m 54.41801,0.80202 -1.02879,21.86986 -1.25419,-8.00845 -8.33076,1.22079 1.03374,6.59944 c -1.33471,0.77631 -2.70014,1.35042 -3.70458,1.49707 -3.80992,0.55823 -7.0577,-1.86444 -7.67237,-5.79175 -0.60329,-3.84718 1.715,-7.08586 5.48168,-7.63805 2.42948,-0.3515 5.46032,0.40214 7.71254,1.93285 l 4.47473,-7.23893 c -3.55865,-2.21329 -8.80596,-3.18349 -13.36951,-2.51452 -9.585,1.40485 -15.57509,8.5372 -14.26329,16.91792 1.31928,8.4223 8.98117,13.59345 18.19132,12.24378 3.8451,-0.56315 8.48866,-2.57688 11.4986,-4.90431 l -0.11414,2.4926 12.85614,0.56466 c 8.53187,0.37417 14.66593,-3.46092 16.56219,-9.98098 2.08294,6.85644 9.06565,11.20706 17.06075,10.21606 1.76368,-0.21921 3.40615,-0.68333 4.90666,-1.34022 l 2.9246,3.71301 4.38633,-3.23187 -2.75078,-3.49266 c 1.86497,-1.77789 3.2115,-3.98211 3.89673,-6.43314 l 0.12888,2.91553 c 0.2434,5.1549 3.51394,8.25222 8.58894,8.03339 3.59535,-0.15496 6.24136,-1.61915 7.67286,-4.59175 l 0.18368,4.0509 5.54124,-0.23811 -0.37266,-8.15245 c 1.39824,4.128 5.16442,6.86287 10.42711,7.13953 3.97323,0.21166 7.34861,-1.00762 9.72204,-3.26173 l -2.79148,-3.14117 c -1.69565,1.51144 -3.89975,2.25638 -6.22549,2.13468 -3.29741,-0.1663 -5.64257,-2.18419 -6.1872,-5.32989 l 16.69773,0.87761 c 0.0548,-0.44863 0.0945,-0.88063 0.11906,-1.3081 3.23285,3.96548 11.51546,1.48271 12.11723,4.89298 0.25814,1.41241 -1.06257,2.25298 -2.94043,2.56328 -2.42109,0.40214 -5.68127,-0.0567 -8.02439,-1.41582 l -1.2274,3.98325 c 2.68622,1.59231 6.37689,2.06249 9.75726,1.50425 2.99554,-0.49739 5.55712,-1.79414 6.85206,-3.78557 0.96827,2.08516 3.04327,3.18954 5.52786,3.38305 1.98368,0.15496 3.97224,-0.26079 5.78759,-1.15087 l -0.93101,-4.09889 c -1.27211,0.4766 -2.35555,0.71962 -3.28407,0.64781 -1.47666,-0.11717 -2.30438,-0.8761 -2.13158,-2.95862 l 0.81778,-9.83886 6.45736,0.50343 0.31786,-3.87742 -6.45691,-0.50343 0.5015,-5.99924 -5.4444,-0.4252 -0.49656,6.00038 -3.20757,-0.25323 -0.0593,0.90179 c -2.34161,-0.83943 -5.18177,-1.07829 -7.80586,-0.64516 -3.12914,0.51704 -5.80051,1.9835 -6.87794,4.31811 -1.35851,-3.54255 -4.45383,-5.71011 -9.46186,-5.97279 -6.05866,-0.31748 -10.68181,3.06369 -11.85165,8.56063 l -0.32239,-7.18261 -5.54079,0.23433 0.49663,10.80189 c 0.16857,3.5176 -1.8288,6.30879 -5.37899,6.5023 -3.04569,0.13228 -4.94891,-1.63238 -5.08989,-4.70098 l -0.55759,-12.15042 -5.54226,0.23811 0.0945,2.04623 c -2.37638,-6.36019 -9.11479,-10.26255 -16.78364,-9.31238 -6.47822,0.8024 -11.40332,4.77771 -13.16746,10.0596 -1.67678,-5.95163 -7.11027,-9.77273 -14.9043,-10.11515 z m 43.0416,5.42702 c 4.98066,-0.13984 9.41567,3.33808 10.08302,8.36523 0.35263,2.62715 -0.41227,5.11143 -1.90718,7.04202 l -2.23688,-2.83843 -4.38678,3.23339 2.21552,2.81234 c -0.71104,0.25701 -1.45682,0.45355 -2.24088,0.55181 -5.41762,0.67125 -10.55271,-2.98469 -11.26326,-8.34633 -0.71153,-5.36126 3.27511,-10.0679 8.73445,-10.74482 0.3326,-0.0529 0.66932,-0.0643 1.00199,-0.0756 z m -33.57626,2.36788 3.21403,0.13984 c 3.8064,0.17008 6.17034,3.0599 5.97173,7.31414 -0.1988,4.21342 -2.60874,6.81373 -6.16188,6.65764 l -3.68027,-0.16252 z m 81.53548,1.92793 c 0.1988,0 0.39216,0 0.59883,0 3.42406,0.17764 5.55118,2.34066 5.49706,5.57783 l -11.83828,-0.62136 c 0.64653,-3.00283 2.793,-4.88277 5.74239,-4.96629 z m 24.8756,1.16599 3.00846,0.23433 -0.63409,7.64145 c -3.23985,-4.23761 -11.84269,-1.81342 -12.39582,-4.94627 -0.23849,-1.33191 0.91808,-2.10331 2.67083,-2.3932 1.92004,-0.3137 4.50947,0 6.90074,0.89499 z"
       style="color:#000000;font-style:normal;font-variant:normal;font-weight:normal;font-stretch:normal;font-size:medium;line-height:normal;font-family:sans-serif;font-variant-ligatures:normal;font-variant-position:normal;font-variant-caps:normal;font-variant-numeric:normal;font-variant-alternates:normal;font-feature-settings:normal;text-indent:0;text-align:start;text-decoration:none;text-decoration-line:none;text-decoration-style:solid;text-decoration-color:#000000;letter-spacing:normal;word-spacing:normal;text-transform:none;writing-mode:lr-tb;direction:ltr;text-orientation:mixed;dominant-baseline:auto;baseline-shift:baseline;text-anchor:start;white-space:normal;shape-padding:0;clip-rule:nonzero;display:inline;overflow:visible;visibility:visible;opacity:1;isolation:auto;mix-blend-mode:normal;color-interpolation:sRGB;color-interpolation-filters:linearRGB;solid-color:#000000;solid-opacity:1;vector-effect:none;fill:#ffffff;fill-opacity:1;fill-rule:nonzero;stroke:none;stroke-width:1.85208;stroke-linecap:round;stroke-linejoin:round;stroke-miterlimit:4;stroke-dasharray:none;stroke-dashoffset:0;stroke-opacity:1;color-rendering:auto;image-rendering:auto;shape-rendering:auto;text-rendering:auto;enable-background:accumulate"
       inkscape:connector-curvature="0" />
  </g>
</svg>
